<?xml version="1.0" encoding="utf-8" standalone="no"?>
<!DOCTYPE svg PUBLIC "-//W3C//DTD SVG 1.1//EN"
  "http://www.w3.org/Graphics/SVG/1.1/DTD/svg11.dtd">
<svg height="432pt" version="1.1" viewBox="0 0 576 432" width="576pt" xmlns="http://www.w3.org/2000/svg" xmlns:xlink="http://www.w3.org/1999/xlink">
 <metadata>
  <rdf:RDF xmlns:cc="http://creativecommons.org/ns#" xmlns:dc="http://purl.org/dc/elements/1.1/" xmlns:rdf="http://www.w3.org/1999/02/22-rdf-syntax-ns#">
   <cc:Work>
    <dc:type rdf:resource="http://purl.org/dc/dcmitype/StillImage"/>
    <dc:date>2022-06-13T22:54:22.291716</dc:date>
    <dc:format>image/svg+xml</dc:format>
    <dc:creator>
     <cc:Agent>
      <dc:title>Matplotlib v3.4.3, https://matplotlib.org/</dc:title>
     </cc:Agent>
    </dc:creator>
   </cc:Work>
  </rdf:RDF>
 </metadata>
 <defs>
  <style type="text/css">*{stroke-linecap:butt;stroke-linejoin:round;}</style>
 </defs>
 <g id="figure_1">
  <g id="patch_1">
   <path d="M 0 432 
L 576 432 
L 576 0 
L 0 0 
z
" style="fill:none;"/>
  </g>
  <g id="axes_1">
   <g id="patch_2">
    <path d="M 72 378 
L 518.4 378 
L 518.4 51.84 
L 72 51.84 
z
" style="fill:#ffffff;"/>
   </g>
   <g id="patch_3">
    <path clip-path="url(#pcd51fbe156)" d="M 99.9 378 
L 155.7 378 
L 155.7 376.07063 
L 99.9 376.07063 
z
" style="fill:#1f77b4;"/>
   </g>
   <g id="patch_4">
    <path clip-path="url(#pcd51fbe156)" d="M 211.5 378 
L 267.3 378 
L 267.3 378 
L 211.5 378 
z
" style="fill:#1f77b4;"/>
   </g>
   <g id="patch_5">
    <path clip-path="url(#pcd51fbe156)" d="M 323.1 378 
L 378.9 378 
L 378.9 370.28252 
L 323.1 370.28252 
z
" style="fill:#1f77b4;"/>
   </g>
   <g id="patch_6">
    <path clip-path="url(#pcd51fbe156)" d="M 434.7 378 
L 490.5 378 
L 490.5 374.14126 
L 434.7 374.14126 
z
" style="fill:#1f77b4;"/>
   </g>
   <g id="patch_7">
    <path clip-path="url(#pcd51fbe156)" d="M 99.9 376.07063 
L 155.7 376.07063 
L 155.7 368.35315 
L 99.9 368.35315 
z
" style="fill:#ff7f0e;"/>
   </g>
   <g id="patch_8">
    <path clip-path="url(#pcd51fbe156)" d="M 211.5 378 
L 267.3 378 
L 267.3 372.21189 
L 211.5 372.21189 
z
" style="fill:#ff7f0e;"/>
   </g>
   <g id="patch_9">
    <path clip-path="url(#pcd51fbe156)" d="M 323.1 370.28252 
L 378.9 370.28252 
L 378.9 231.367879 
L 323.1 231.367879 
z
" style="fill:#ff7f0e;"/>
   </g>
   <g id="patch_10">
    <path clip-path="url(#pcd51fbe156)" d="M 434.7 378 
L 490.5 378 
L 490.5 378 
L 434.7 378 
z
" style="fill:#ff7f0e;"/>
   </g>
   <g id="patch_11">
    <path clip-path="url(#pcd51fbe156)" d="M 99.9 368.35315 
L 155.7 368.35315 
L 155.7 362.56504 
L 99.9 362.56504 
z
" style="fill:#2ca02c;"/>
   </g>
   <g id="patch_12">
    <path clip-path="url(#pcd51fbe156)" d="M 211.5 378 
L 267.3 378 
L 267.3 378 
L 211.5 378 
z
" style="fill:#2ca02c;"/>
   </g>
   <g id="patch_13">
    <path clip-path="url(#pcd51fbe156)" d="M 323.1 231.367879 
L 378.9 231.367879 
L 378.9 223.650399 
L 323.1 223.650399 
z
" style="fill:#2ca02c;"/>
   </g>
   <g id="patch_14">
    <path clip-path="url(#pcd51fbe156)" d="M 434.7 374.14126 
L 490.5 374.14126 
L 490.5 366.42378 
L 434.7 366.42378 
z
" style="fill:#2ca02c;"/>
   </g>
   <g id="patch_15">
    <path clip-path="url(#pcd51fbe156)" d="M 99.9 362.56504 
L 155.7 362.56504 
L 155.7 349.05945 
L 99.9 349.05945 
z
" style="fill:#d62728;"/>
   </g>
   <g id="patch_16">
    <path clip-path="url(#pcd51fbe156)" d="M 211.5 372.21189 
L 267.3 372.21189 
L 267.3 370.28252 
L 211.5 370.28252 
z
" style="fill:#d62728;"/>
   </g>
   <g id="patch_17">
    <path clip-path="url(#pcd51fbe156)" d="M 323.1 223.650399 
L 378.9 223.650399 
L 378.9 169.628039 
L 323.1 169.628039 
z
" style="fill:#d62728;"/>
   </g>
   <g id="patch_18">
    <path clip-path="url(#pcd51fbe156)" d="M 434.7 366.42378 
L 490.5 366.42378 
L 490.5 362.56504 
L 434.7 362.56504 
z
" style="fill:#d62728;"/>
   </g>
   <g id="patch_19">
    <path clip-path="url(#pcd51fbe156)" d="M 99.9 378 
L 155.7 378 
L 155.7 378 
L 99.9 378 
z
" style="fill:#9467bd;"/>
   </g>
   <g id="patch_20">
    <path clip-path="url(#pcd51fbe156)" d="M 211.5 378 
L 267.3 378 
L 267.3 378 
L 211.5 378 
z
" style="fill:#9467bd;"/>
   </g>
   <g id="patch_21">
    <path clip-path="url(#pcd51fbe156)" d="M 323.1 169.628039 
L 378.9 169.628039 
L 378.9 159.981189 
L 323.1 159.981189 
z
" style="fill:#9467bd;"/>
   </g>
   <g id="patch_22">
    <path clip-path="url(#pcd51fbe156)" d="M 434.7 378 
L 490.5 378 
L 490.5 378 
L 434.7 378 
z
" style="fill:#9467bd;"/>
   </g>
   <g id="patch_23">
    <path clip-path="url(#pcd51fbe156)" d="M 99.9 378 
L 155.7 378 
L 155.7 378 
L 99.9 378 
z
" style="fill:#8c564b;"/>
   </g>
   <g id="patch_24">
    <path clip-path="url(#pcd51fbe156)" d="M 211.5 378 
L 267.3 378 
L 267.3 378 
L 211.5 378 
z
" style="fill:#8c564b;"/>
   </g>
   <g id="patch_25">
    <path clip-path="url(#pcd51fbe156)" d="M 323.1 159.981189 
L 378.9 159.981189 
L 378.9 150.334339 
L 323.1 150.334339 
z
" style="fill:#8c564b;"/>
   </g>
   <g id="patch_26">
    <path clip-path="url(#pcd51fbe156)" d="M 434.7 378 
L 490.5 378 
L 490.5 378 
L 434.7 378 
z
" style="fill:#8c564b;"/>
   </g>
   <g id="patch_27">
    <path clip-path="url(#pcd51fbe156)" d="M 99.9 349.05945 
L 155.7 349.05945 
L 155.7 347.13008 
L 99.9 347.13008 
z
" style="fill:#e377c2;"/>
   </g>
   <g id="patch_28">
    <path clip-path="url(#pcd51fbe156)" d="M 211.5 378 
L 267.3 378 
L 267.3 378 
L 211.5 378 
z
" style="fill:#e377c2;"/>
   </g>
   <g id="patch_29">
    <path clip-path="url(#pcd51fbe156)" d="M 323.1 150.334339 
L 378.9 150.334339 
L 378.9 67.371429 
L 323.1 67.371429 
z
" style="fill:#e377c2;"/>
   </g>
   <g id="patch_30">
    <path clip-path="url(#pcd51fbe156)" d="M 434.7 362.56504 
L 490.5 362.56504 
L 490.5 358.7063 
L 434.7 358.7063 
z
" style="fill:#e377c2;"/>
   </g>
   <g id="matplotlib.axis_1">
    <g id="xtick_1">
     <g id="line2d_1">
      <defs>
       <path d="M 0 0 
L 0 3.5 
" id="mff4dd0265e" style="stroke:#000000;stroke-width:0.8;"/>
      </defs>
      <g>
       <use style="stroke:#000000;stroke-width:0.8;" x="127.8" xlink:href="#mff4dd0265e" y="378"/>
      </g>
     </g>
     <g id="text_1">
      <!-- Endangered -->
      <g transform="translate(130.559375 445.359375)rotate(-90)scale(0.1 -0.1)">
       <defs>
        <path d="M 628 4666 
L 3578 4666 
L 3578 4134 
L 1259 4134 
L 1259 2753 
L 3481 2753 
L 3481 2222 
L 1259 2222 
L 1259 531 
L 3634 531 
L 3634 0 
L 628 0 
L 628 4666 
z
" id="DejaVuSans-45" transform="scale(0.015625)"/>
        <path d="M 3513 2113 
L 3513 0 
L 2938 0 
L 2938 2094 
Q 2938 2591 2744 2837 
Q 2550 3084 2163 3084 
Q 1697 3084 1428 2787 
Q 1159 2491 1159 1978 
L 1159 0 
L 581 0 
L 581 3500 
L 1159 3500 
L 1159 2956 
Q 1366 3272 1645 3428 
Q 1925 3584 2291 3584 
Q 2894 3584 3203 3211 
Q 3513 2838 3513 2113 
z
" id="DejaVuSans-6e" transform="scale(0.015625)"/>
        <path d="M 2906 2969 
L 2906 4863 
L 3481 4863 
L 3481 0 
L 2906 0 
L 2906 525 
Q 2725 213 2448 61 
Q 2172 -91 1784 -91 
Q 1150 -91 751 415 
Q 353 922 353 1747 
Q 353 2572 751 3078 
Q 1150 3584 1784 3584 
Q 2172 3584 2448 3432 
Q 2725 3281 2906 2969 
z
M 947 1747 
Q 947 1113 1208 752 
Q 1469 391 1925 391 
Q 2381 391 2643 752 
Q 2906 1113 2906 1747 
Q 2906 2381 2643 2742 
Q 2381 3103 1925 3103 
Q 1469 3103 1208 2742 
Q 947 2381 947 1747 
z
" id="DejaVuSans-64" transform="scale(0.015625)"/>
        <path d="M 2194 1759 
Q 1497 1759 1228 1600 
Q 959 1441 959 1056 
Q 959 750 1161 570 
Q 1363 391 1709 391 
Q 2188 391 2477 730 
Q 2766 1069 2766 1631 
L 2766 1759 
L 2194 1759 
z
M 3341 1997 
L 3341 0 
L 2766 0 
L 2766 531 
Q 2569 213 2275 61 
Q 1981 -91 1556 -91 
Q 1019 -91 701 211 
Q 384 513 384 1019 
Q 384 1609 779 1909 
Q 1175 2209 1959 2209 
L 2766 2209 
L 2766 2266 
Q 2766 2663 2505 2880 
Q 2244 3097 1772 3097 
Q 1472 3097 1187 3025 
Q 903 2953 641 2809 
L 641 3341 
Q 956 3463 1253 3523 
Q 1550 3584 1831 3584 
Q 2591 3584 2966 3190 
Q 3341 2797 3341 1997 
z
" id="DejaVuSans-61" transform="scale(0.015625)"/>
        <path d="M 2906 1791 
Q 2906 2416 2648 2759 
Q 2391 3103 1925 3103 
Q 1463 3103 1205 2759 
Q 947 2416 947 1791 
Q 947 1169 1205 825 
Q 1463 481 1925 481 
Q 2391 481 2648 825 
Q 2906 1169 2906 1791 
z
M 3481 434 
Q 3481 -459 3084 -895 
Q 2688 -1331 1869 -1331 
Q 1566 -1331 1297 -1286 
Q 1028 -1241 775 -1147 
L 775 -588 
Q 1028 -725 1275 -790 
Q 1522 -856 1778 -856 
Q 2344 -856 2625 -561 
Q 2906 -266 2906 331 
L 2906 616 
Q 2728 306 2450 153 
Q 2172 0 1784 0 
Q 1141 0 747 490 
Q 353 981 353 1791 
Q 353 2603 747 3093 
Q 1141 3584 1784 3584 
Q 2172 3584 2450 3431 
Q 2728 3278 2906 2969 
L 2906 3500 
L 3481 3500 
L 3481 434 
z
" id="DejaVuSans-67" transform="scale(0.015625)"/>
        <path d="M 3597 1894 
L 3597 1613 
L 953 1613 
Q 991 1019 1311 708 
Q 1631 397 2203 397 
Q 2534 397 2845 478 
Q 3156 559 3463 722 
L 3463 178 
Q 3153 47 2828 -22 
Q 2503 -91 2169 -91 
Q 1331 -91 842 396 
Q 353 884 353 1716 
Q 353 2575 817 3079 
Q 1281 3584 2069 3584 
Q 2775 3584 3186 3129 
Q 3597 2675 3597 1894 
z
M 3022 2063 
Q 3016 2534 2758 2815 
Q 2500 3097 2075 3097 
Q 1594 3097 1305 2825 
Q 1016 2553 972 2059 
L 3022 2063 
z
" id="DejaVuSans-65" transform="scale(0.015625)"/>
        <path d="M 2631 2963 
Q 2534 3019 2420 3045 
Q 2306 3072 2169 3072 
Q 1681 3072 1420 2755 
Q 1159 2438 1159 1844 
L 1159 0 
L 581 0 
L 581 3500 
L 1159 3500 
L 1159 2956 
Q 1341 3275 1631 3429 
Q 1922 3584 2338 3584 
Q 2397 3584 2469 3576 
Q 2541 3569 2628 3553 
L 2631 2963 
z
" id="DejaVuSans-72" transform="scale(0.015625)"/>
       </defs>
       <use xlink:href="#DejaVuSans-45"/>
       <use x="63.183594" xlink:href="#DejaVuSans-6e"/>
       <use x="126.5625" xlink:href="#DejaVuSans-64"/>
       <use x="190.039062" xlink:href="#DejaVuSans-61"/>
       <use x="251.318359" xlink:href="#DejaVuSans-6e"/>
       <use x="314.697266" xlink:href="#DejaVuSans-67"/>
       <use x="378.173828" xlink:href="#DejaVuSans-65"/>
       <use x="439.697266" xlink:href="#DejaVuSans-72"/>
       <use x="478.560547" xlink:href="#DejaVuSans-65"/>
       <use x="540.083984" xlink:href="#DejaVuSans-64"/>
      </g>
     </g>
    </g>
    <g id="xtick_2">
     <g id="line2d_2">
      <g>
       <use style="stroke:#000000;stroke-width:0.8;" x="239.4" xlink:href="#mff4dd0265e" y="378"/>
      </g>
     </g>
     <g id="text_2">
      <!-- In Recovery -->
      <g transform="translate(242.159375 443.835938)rotate(-90)scale(0.1 -0.1)">
       <defs>
        <path d="M 628 4666 
L 1259 4666 
L 1259 0 
L 628 0 
L 628 4666 
z
" id="DejaVuSans-49" transform="scale(0.015625)"/>
        <path id="DejaVuSans-20" transform="scale(0.015625)"/>
        <path d="M 2841 2188 
Q 3044 2119 3236 1894 
Q 3428 1669 3622 1275 
L 4263 0 
L 3584 0 
L 2988 1197 
Q 2756 1666 2539 1819 
Q 2322 1972 1947 1972 
L 1259 1972 
L 1259 0 
L 628 0 
L 628 4666 
L 2053 4666 
Q 2853 4666 3247 4331 
Q 3641 3997 3641 3322 
Q 3641 2881 3436 2590 
Q 3231 2300 2841 2188 
z
M 1259 4147 
L 1259 2491 
L 2053 2491 
Q 2509 2491 2742 2702 
Q 2975 2913 2975 3322 
Q 2975 3731 2742 3939 
Q 2509 4147 2053 4147 
L 1259 4147 
z
" id="DejaVuSans-52" transform="scale(0.015625)"/>
        <path d="M 3122 3366 
L 3122 2828 
Q 2878 2963 2633 3030 
Q 2388 3097 2138 3097 
Q 1578 3097 1268 2742 
Q 959 2388 959 1747 
Q 959 1106 1268 751 
Q 1578 397 2138 397 
Q 2388 397 2633 464 
Q 2878 531 3122 666 
L 3122 134 
Q 2881 22 2623 -34 
Q 2366 -91 2075 -91 
Q 1284 -91 818 406 
Q 353 903 353 1747 
Q 353 2603 823 3093 
Q 1294 3584 2113 3584 
Q 2378 3584 2631 3529 
Q 2884 3475 3122 3366 
z
" id="DejaVuSans-63" transform="scale(0.015625)"/>
        <path d="M 1959 3097 
Q 1497 3097 1228 2736 
Q 959 2375 959 1747 
Q 959 1119 1226 758 
Q 1494 397 1959 397 
Q 2419 397 2687 759 
Q 2956 1122 2956 1747 
Q 2956 2369 2687 2733 
Q 2419 3097 1959 3097 
z
M 1959 3584 
Q 2709 3584 3137 3096 
Q 3566 2609 3566 1747 
Q 3566 888 3137 398 
Q 2709 -91 1959 -91 
Q 1206 -91 779 398 
Q 353 888 353 1747 
Q 353 2609 779 3096 
Q 1206 3584 1959 3584 
z
" id="DejaVuSans-6f" transform="scale(0.015625)"/>
        <path d="M 191 3500 
L 800 3500 
L 1894 563 
L 2988 3500 
L 3597 3500 
L 2284 0 
L 1503 0 
L 191 3500 
z
" id="DejaVuSans-76" transform="scale(0.015625)"/>
        <path d="M 2059 -325 
Q 1816 -950 1584 -1140 
Q 1353 -1331 966 -1331 
L 506 -1331 
L 506 -850 
L 844 -850 
Q 1081 -850 1212 -737 
Q 1344 -625 1503 -206 
L 1606 56 
L 191 3500 
L 800 3500 
L 1894 763 
L 2988 3500 
L 3597 3500 
L 2059 -325 
z
" id="DejaVuSans-79" transform="scale(0.015625)"/>
       </defs>
       <use xlink:href="#DejaVuSans-49"/>
       <use x="29.492188" xlink:href="#DejaVuSans-6e"/>
       <use x="92.871094" xlink:href="#DejaVuSans-20"/>
       <use x="124.658203" xlink:href="#DejaVuSans-52"/>
       <use x="189.640625" xlink:href="#DejaVuSans-65"/>
       <use x="251.164062" xlink:href="#DejaVuSans-63"/>
       <use x="306.144531" xlink:href="#DejaVuSans-6f"/>
       <use x="367.326172" xlink:href="#DejaVuSans-76"/>
       <use x="426.505859" xlink:href="#DejaVuSans-65"/>
       <use x="488.029297" xlink:href="#DejaVuSans-72"/>
       <use x="529.142578" xlink:href="#DejaVuSans-79"/>
      </g>
     </g>
    </g>
    <g id="xtick_3">
     <g id="line2d_3">
      <g>
       <use style="stroke:#000000;stroke-width:0.8;" x="351" xlink:href="#mff4dd0265e" y="378"/>
      </g>
     </g>
     <g id="text_3">
      <!-- Species of Concern -->
      <g transform="translate(353.759375 480.848437)rotate(-90)scale(0.1 -0.1)">
       <defs>
        <path d="M 3425 4513 
L 3425 3897 
Q 3066 4069 2747 4153 
Q 2428 4238 2131 4238 
Q 1616 4238 1336 4038 
Q 1056 3838 1056 3469 
Q 1056 3159 1242 3001 
Q 1428 2844 1947 2747 
L 2328 2669 
Q 3034 2534 3370 2195 
Q 3706 1856 3706 1288 
Q 3706 609 3251 259 
Q 2797 -91 1919 -91 
Q 1588 -91 1214 -16 
Q 841 59 441 206 
L 441 856 
Q 825 641 1194 531 
Q 1563 422 1919 422 
Q 2459 422 2753 634 
Q 3047 847 3047 1241 
Q 3047 1584 2836 1778 
Q 2625 1972 2144 2069 
L 1759 2144 
Q 1053 2284 737 2584 
Q 422 2884 422 3419 
Q 422 4038 858 4394 
Q 1294 4750 2059 4750 
Q 2388 4750 2728 4690 
Q 3069 4631 3425 4513 
z
" id="DejaVuSans-53" transform="scale(0.015625)"/>
        <path d="M 1159 525 
L 1159 -1331 
L 581 -1331 
L 581 3500 
L 1159 3500 
L 1159 2969 
Q 1341 3281 1617 3432 
Q 1894 3584 2278 3584 
Q 2916 3584 3314 3078 
Q 3713 2572 3713 1747 
Q 3713 922 3314 415 
Q 2916 -91 2278 -91 
Q 1894 -91 1617 61 
Q 1341 213 1159 525 
z
M 3116 1747 
Q 3116 2381 2855 2742 
Q 2594 3103 2138 3103 
Q 1681 3103 1420 2742 
Q 1159 2381 1159 1747 
Q 1159 1113 1420 752 
Q 1681 391 2138 391 
Q 2594 391 2855 752 
Q 3116 1113 3116 1747 
z
" id="DejaVuSans-70" transform="scale(0.015625)"/>
        <path d="M 603 3500 
L 1178 3500 
L 1178 0 
L 603 0 
L 603 3500 
z
M 603 4863 
L 1178 4863 
L 1178 4134 
L 603 4134 
L 603 4863 
z
" id="DejaVuSans-69" transform="scale(0.015625)"/>
        <path d="M 2834 3397 
L 2834 2853 
Q 2591 2978 2328 3040 
Q 2066 3103 1784 3103 
Q 1356 3103 1142 2972 
Q 928 2841 928 2578 
Q 928 2378 1081 2264 
Q 1234 2150 1697 2047 
L 1894 2003 
Q 2506 1872 2764 1633 
Q 3022 1394 3022 966 
Q 3022 478 2636 193 
Q 2250 -91 1575 -91 
Q 1294 -91 989 -36 
Q 684 19 347 128 
L 347 722 
Q 666 556 975 473 
Q 1284 391 1588 391 
Q 1994 391 2212 530 
Q 2431 669 2431 922 
Q 2431 1156 2273 1281 
Q 2116 1406 1581 1522 
L 1381 1569 
Q 847 1681 609 1914 
Q 372 2147 372 2553 
Q 372 3047 722 3315 
Q 1072 3584 1716 3584 
Q 2034 3584 2315 3537 
Q 2597 3491 2834 3397 
z
" id="DejaVuSans-73" transform="scale(0.015625)"/>
        <path d="M 2375 4863 
L 2375 4384 
L 1825 4384 
Q 1516 4384 1395 4259 
Q 1275 4134 1275 3809 
L 1275 3500 
L 2222 3500 
L 2222 3053 
L 1275 3053 
L 1275 0 
L 697 0 
L 697 3053 
L 147 3053 
L 147 3500 
L 697 3500 
L 697 3744 
Q 697 4328 969 4595 
Q 1241 4863 1831 4863 
L 2375 4863 
z
" id="DejaVuSans-66" transform="scale(0.015625)"/>
        <path d="M 4122 4306 
L 4122 3641 
Q 3803 3938 3442 4084 
Q 3081 4231 2675 4231 
Q 1875 4231 1450 3742 
Q 1025 3253 1025 2328 
Q 1025 1406 1450 917 
Q 1875 428 2675 428 
Q 3081 428 3442 575 
Q 3803 722 4122 1019 
L 4122 359 
Q 3791 134 3420 21 
Q 3050 -91 2638 -91 
Q 1578 -91 968 557 
Q 359 1206 359 2328 
Q 359 3453 968 4101 
Q 1578 4750 2638 4750 
Q 3056 4750 3426 4639 
Q 3797 4528 4122 4306 
z
" id="DejaVuSans-43" transform="scale(0.015625)"/>
       </defs>
       <use xlink:href="#DejaVuSans-53"/>
       <use x="63.476562" xlink:href="#DejaVuSans-70"/>
       <use x="126.953125" xlink:href="#DejaVuSans-65"/>
       <use x="188.476562" xlink:href="#DejaVuSans-63"/>
       <use x="243.457031" xlink:href="#DejaVuSans-69"/>
       <use x="271.240234" xlink:href="#DejaVuSans-65"/>
       <use x="332.763672" xlink:href="#DejaVuSans-73"/>
       <use x="384.863281" xlink:href="#DejaVuSans-20"/>
       <use x="416.650391" xlink:href="#DejaVuSans-6f"/>
       <use x="477.832031" xlink:href="#DejaVuSans-66"/>
       <use x="513.037109" xlink:href="#DejaVuSans-20"/>
       <use x="544.824219" xlink:href="#DejaVuSans-43"/>
       <use x="614.648438" xlink:href="#DejaVuSans-6f"/>
       <use x="675.830078" xlink:href="#DejaVuSans-6e"/>
       <use x="739.208984" xlink:href="#DejaVuSans-63"/>
       <use x="794.189453" xlink:href="#DejaVuSans-65"/>
       <use x="855.712891" xlink:href="#DejaVuSans-72"/>
       <use x="895.076172" xlink:href="#DejaVuSans-6e"/>
      </g>
     </g>
    </g>
    <g id="xtick_4">
     <g id="line2d_4">
      <g>
       <use style="stroke:#000000;stroke-width:0.8;" x="462.6" xlink:href="#mff4dd0265e" y="378"/>
      </g>
     </g>
     <g id="text_4">
      <!-- Threatened -->
      <g transform="translate(465.359375 442.525)rotate(-90)scale(0.1 -0.1)">
       <defs>
        <path d="M -19 4666 
L 3928 4666 
L 3928 4134 
L 2272 4134 
L 2272 0 
L 1638 0 
L 1638 4134 
L -19 4134 
L -19 4666 
z
" id="DejaVuSans-54" transform="scale(0.015625)"/>
        <path d="M 3513 2113 
L 3513 0 
L 2938 0 
L 2938 2094 
Q 2938 2591 2744 2837 
Q 2550 3084 2163 3084 
Q 1697 3084 1428 2787 
Q 1159 2491 1159 1978 
L 1159 0 
L 581 0 
L 581 4863 
L 1159 4863 
L 1159 2956 
Q 1366 3272 1645 3428 
Q 1925 3584 2291 3584 
Q 2894 3584 3203 3211 
Q 3513 2838 3513 2113 
z
" id="DejaVuSans-68" transform="scale(0.015625)"/>
        <path d="M 1172 4494 
L 1172 3500 
L 2356 3500 
L 2356 3053 
L 1172 3053 
L 1172 1153 
Q 1172 725 1289 603 
Q 1406 481 1766 481 
L 2356 481 
L 2356 0 
L 1766 0 
Q 1100 0 847 248 
Q 594 497 594 1153 
L 594 3053 
L 172 3053 
L 172 3500 
L 594 3500 
L 594 4494 
L 1172 4494 
z
" id="DejaVuSans-74" transform="scale(0.015625)"/>
       </defs>
       <use xlink:href="#DejaVuSans-54"/>
       <use x="61.083984" xlink:href="#DejaVuSans-68"/>
       <use x="124.462891" xlink:href="#DejaVuSans-72"/>
       <use x="163.326172" xlink:href="#DejaVuSans-65"/>
       <use x="224.849609" xlink:href="#DejaVuSans-61"/>
       <use x="286.128906" xlink:href="#DejaVuSans-74"/>
       <use x="325.337891" xlink:href="#DejaVuSans-65"/>
       <use x="386.861328" xlink:href="#DejaVuSans-6e"/>
       <use x="450.240234" xlink:href="#DejaVuSans-65"/>
       <use x="511.763672" xlink:href="#DejaVuSans-64"/>
      </g>
     </g>
    </g>
    <g id="text_5">
     <!-- Conservation Status -->
     <g transform="translate(244.621875 492.446875)scale(0.1 -0.1)">
      <defs>
       <path d="M 544 1381 
L 544 3500 
L 1119 3500 
L 1119 1403 
Q 1119 906 1312 657 
Q 1506 409 1894 409 
Q 2359 409 2629 706 
Q 2900 1003 2900 1516 
L 2900 3500 
L 3475 3500 
L 3475 0 
L 2900 0 
L 2900 538 
Q 2691 219 2414 64 
Q 2138 -91 1772 -91 
Q 1169 -91 856 284 
Q 544 659 544 1381 
z
M 1991 3584 
L 1991 3584 
z
" id="DejaVuSans-75" transform="scale(0.015625)"/>
      </defs>
      <use xlink:href="#DejaVuSans-43"/>
      <use x="69.824219" xlink:href="#DejaVuSans-6f"/>
      <use x="131.005859" xlink:href="#DejaVuSans-6e"/>
      <use x="194.384766" xlink:href="#DejaVuSans-73"/>
      <use x="246.484375" xlink:href="#DejaVuSans-65"/>
      <use x="308.007812" xlink:href="#DejaVuSans-72"/>
      <use x="349.121094" xlink:href="#DejaVuSans-76"/>
      <use x="408.300781" xlink:href="#DejaVuSans-61"/>
      <use x="469.580078" xlink:href="#DejaVuSans-74"/>
      <use x="508.789062" xlink:href="#DejaVuSans-69"/>
      <use x="536.572266" xlink:href="#DejaVuSans-6f"/>
      <use x="597.753906" xlink:href="#DejaVuSans-6e"/>
      <use x="661.132812" xlink:href="#DejaVuSans-20"/>
      <use x="692.919922" xlink:href="#DejaVuSans-53"/>
      <use x="756.396484" xlink:href="#DejaVuSans-74"/>
      <use x="795.605469" xlink:href="#DejaVuSans-61"/>
      <use x="856.884766" xlink:href="#DejaVuSans-74"/>
      <use x="896.09375" xlink:href="#DejaVuSans-75"/>
      <use x="959.472656" xlink:href="#DejaVuSans-73"/>
     </g>
    </g>
   </g>
   <g id="matplotlib.axis_2">
    <g id="ytick_1">
     <g id="line2d_5">
      <defs>
       <path d="M 0 0 
L -3.5 0 
" id="m7cae3c9f89" style="stroke:#000000;stroke-width:0.8;"/>
      </defs>
      <g>
       <use style="stroke:#000000;stroke-width:0.8;" x="72" xlink:href="#m7cae3c9f89" y="378"/>
      </g>
     </g>
     <g id="text_6">
      <!-- 0 -->
      <g transform="translate(58.6375 381.799219)scale(0.1 -0.1)">
       <defs>
        <path d="M 2034 4250 
Q 1547 4250 1301 3770 
Q 1056 3291 1056 2328 
Q 1056 1369 1301 889 
Q 1547 409 2034 409 
Q 2525 409 2770 889 
Q 3016 1369 3016 2328 
Q 3016 3291 2770 3770 
Q 2525 4250 2034 4250 
z
M 2034 4750 
Q 2819 4750 3233 4129 
Q 3647 3509 3647 2328 
Q 3647 1150 3233 529 
Q 2819 -91 2034 -91 
Q 1250 -91 836 529 
Q 422 1150 422 2328 
Q 422 3509 836 4129 
Q 1250 4750 2034 4750 
z
" id="DejaVuSans-30" transform="scale(0.015625)"/>
       </defs>
       <use xlink:href="#DejaVuSans-30"/>
      </g>
     </g>
    </g>
    <g id="ytick_2">
     <g id="line2d_6">
      <g>
       <use style="stroke:#000000;stroke-width:0.8;" x="72" xlink:href="#m7cae3c9f89" y="339.4126"/>
      </g>
     </g>
     <g id="text_7">
      <!-- 20 -->
      <g transform="translate(52.275 343.211819)scale(0.1 -0.1)">
       <defs>
        <path d="M 1228 531 
L 3431 531 
L 3431 0 
L 469 0 
L 469 531 
Q 828 903 1448 1529 
Q 2069 2156 2228 2338 
Q 2531 2678 2651 2914 
Q 2772 3150 2772 3378 
Q 2772 3750 2511 3984 
Q 2250 4219 1831 4219 
Q 1534 4219 1204 4116 
Q 875 4013 500 3803 
L 500 4441 
Q 881 4594 1212 4672 
Q 1544 4750 1819 4750 
Q 2544 4750 2975 4387 
Q 3406 4025 3406 3419 
Q 3406 3131 3298 2873 
Q 3191 2616 2906 2266 
Q 2828 2175 2409 1742 
Q 1991 1309 1228 531 
z
" id="DejaVuSans-32" transform="scale(0.015625)"/>
       </defs>
       <use xlink:href="#DejaVuSans-32"/>
       <use x="63.623047" xlink:href="#DejaVuSans-30"/>
      </g>
     </g>
    </g>
    <g id="ytick_3">
     <g id="line2d_7">
      <g>
       <use style="stroke:#000000;stroke-width:0.8;" x="72" xlink:href="#m7cae3c9f89" y="300.8252"/>
      </g>
     </g>
     <g id="text_8">
      <!-- 40 -->
      <g transform="translate(52.275 304.624418)scale(0.1 -0.1)">
       <defs>
        <path d="M 2419 4116 
L 825 1625 
L 2419 1625 
L 2419 4116 
z
M 2253 4666 
L 3047 4666 
L 3047 1625 
L 3713 1625 
L 3713 1100 
L 3047 1100 
L 3047 0 
L 2419 0 
L 2419 1100 
L 313 1100 
L 313 1709 
L 2253 4666 
z
" id="DejaVuSans-34" transform="scale(0.015625)"/>
       </defs>
       <use xlink:href="#DejaVuSans-34"/>
       <use x="63.623047" xlink:href="#DejaVuSans-30"/>
      </g>
     </g>
    </g>
    <g id="ytick_4">
     <g id="line2d_8">
      <g>
       <use style="stroke:#000000;stroke-width:0.8;" x="72" xlink:href="#m7cae3c9f89" y="262.237799"/>
      </g>
     </g>
     <g id="text_9">
      <!-- 60 -->
      <g transform="translate(52.275 266.037018)scale(0.1 -0.1)">
       <defs>
        <path d="M 2113 2584 
Q 1688 2584 1439 2293 
Q 1191 2003 1191 1497 
Q 1191 994 1439 701 
Q 1688 409 2113 409 
Q 2538 409 2786 701 
Q 3034 994 3034 1497 
Q 3034 2003 2786 2293 
Q 2538 2584 2113 2584 
z
M 3366 4563 
L 3366 3988 
Q 3128 4100 2886 4159 
Q 2644 4219 2406 4219 
Q 1781 4219 1451 3797 
Q 1122 3375 1075 2522 
Q 1259 2794 1537 2939 
Q 1816 3084 2150 3084 
Q 2853 3084 3261 2657 
Q 3669 2231 3669 1497 
Q 3669 778 3244 343 
Q 2819 -91 2113 -91 
Q 1303 -91 875 529 
Q 447 1150 447 2328 
Q 447 3434 972 4092 
Q 1497 4750 2381 4750 
Q 2619 4750 2861 4703 
Q 3103 4656 3366 4563 
z
" id="DejaVuSans-36" transform="scale(0.015625)"/>
       </defs>
       <use xlink:href="#DejaVuSans-36"/>
       <use x="63.623047" xlink:href="#DejaVuSans-30"/>
      </g>
     </g>
    </g>
    <g id="ytick_5">
     <g id="line2d_9">
      <g>
       <use style="stroke:#000000;stroke-width:0.8;" x="72" xlink:href="#m7cae3c9f89" y="223.650399"/>
      </g>
     </g>
     <g id="text_10">
      <!-- 80 -->
      <g transform="translate(52.275 227.449618)scale(0.1 -0.1)">
       <defs>
        <path d="M 2034 2216 
Q 1584 2216 1326 1975 
Q 1069 1734 1069 1313 
Q 1069 891 1326 650 
Q 1584 409 2034 409 
Q 2484 409 2743 651 
Q 3003 894 3003 1313 
Q 3003 1734 2745 1975 
Q 2488 2216 2034 2216 
z
M 1403 2484 
Q 997 2584 770 2862 
Q 544 3141 544 3541 
Q 544 4100 942 4425 
Q 1341 4750 2034 4750 
Q 2731 4750 3128 4425 
Q 3525 4100 3525 3541 
Q 3525 3141 3298 2862 
Q 3072 2584 2669 2484 
Q 3125 2378 3379 2068 
Q 3634 1759 3634 1313 
Q 3634 634 3220 271 
Q 2806 -91 2034 -91 
Q 1263 -91 848 271 
Q 434 634 434 1313 
Q 434 1759 690 2068 
Q 947 2378 1403 2484 
z
M 1172 3481 
Q 1172 3119 1398 2916 
Q 1625 2713 2034 2713 
Q 2441 2713 2670 2916 
Q 2900 3119 2900 3481 
Q 2900 3844 2670 4047 
Q 2441 4250 2034 4250 
Q 1625 4250 1398 4047 
Q 1172 3844 1172 3481 
z
" id="DejaVuSans-38" transform="scale(0.015625)"/>
       </defs>
       <use xlink:href="#DejaVuSans-38"/>
       <use x="63.623047" xlink:href="#DejaVuSans-30"/>
      </g>
     </g>
    </g>
    <g id="ytick_6">
     <g id="line2d_10">
      <g>
       <use style="stroke:#000000;stroke-width:0.8;" x="72" xlink:href="#m7cae3c9f89" y="185.062999"/>
      </g>
     </g>
     <g id="text_11">
      <!-- 100 -->
      <g transform="translate(45.9125 188.862218)scale(0.1 -0.1)">
       <defs>
        <path d="M 794 531 
L 1825 531 
L 1825 4091 
L 703 3866 
L 703 4441 
L 1819 4666 
L 2450 4666 
L 2450 531 
L 3481 531 
L 3481 0 
L 794 0 
L 794 531 
z
" id="DejaVuSans-31" transform="scale(0.015625)"/>
       </defs>
       <use xlink:href="#DejaVuSans-31"/>
       <use x="63.623047" xlink:href="#DejaVuSans-30"/>
       <use x="127.246094" xlink:href="#DejaVuSans-30"/>
      </g>
     </g>
    </g>
    <g id="ytick_7">
     <g id="line2d_11">
      <g>
       <use style="stroke:#000000;stroke-width:0.8;" x="72" xlink:href="#m7cae3c9f89" y="146.475599"/>
      </g>
     </g>
     <g id="text_12">
      <!-- 120 -->
      <g transform="translate(45.9125 150.274818)scale(0.1 -0.1)">
       <use xlink:href="#DejaVuSans-31"/>
       <use x="63.623047" xlink:href="#DejaVuSans-32"/>
       <use x="127.246094" xlink:href="#DejaVuSans-30"/>
      </g>
     </g>
    </g>
    <g id="ytick_8">
     <g id="line2d_12">
      <g>
       <use style="stroke:#000000;stroke-width:0.8;" x="72" xlink:href="#m7cae3c9f89" y="107.888199"/>
      </g>
     </g>
     <g id="text_13">
      <!-- 140 -->
      <g transform="translate(45.9125 111.687418)scale(0.1 -0.1)">
       <use xlink:href="#DejaVuSans-31"/>
       <use x="63.623047" xlink:href="#DejaVuSans-34"/>
       <use x="127.246094" xlink:href="#DejaVuSans-30"/>
      </g>
     </g>
    </g>
    <g id="ytick_9">
     <g id="line2d_13">
      <g>
       <use style="stroke:#000000;stroke-width:0.8;" x="72" xlink:href="#m7cae3c9f89" y="69.300799"/>
      </g>
     </g>
     <g id="text_14">
      <!-- 160 -->
      <g transform="translate(45.9125 73.100017)scale(0.1 -0.1)">
       <use xlink:href="#DejaVuSans-31"/>
       <use x="63.623047" xlink:href="#DejaVuSans-36"/>
       <use x="127.246094" xlink:href="#DejaVuSans-30"/>
      </g>
     </g>
    </g>
    <g id="text_15">
     <!-- Total Animals -->
     <g transform="translate(39.832812 248.091875)rotate(-90)scale(0.1 -0.1)">
      <defs>
       <path d="M 603 4863 
L 1178 4863 
L 1178 0 
L 603 0 
L 603 4863 
z
" id="DejaVuSans-6c" transform="scale(0.015625)"/>
       <path d="M 2188 4044 
L 1331 1722 
L 3047 1722 
L 2188 4044 
z
M 1831 4666 
L 2547 4666 
L 4325 0 
L 3669 0 
L 3244 1197 
L 1141 1197 
L 716 0 
L 50 0 
L 1831 4666 
z
" id="DejaVuSans-41" transform="scale(0.015625)"/>
       <path d="M 3328 2828 
Q 3544 3216 3844 3400 
Q 4144 3584 4550 3584 
Q 5097 3584 5394 3201 
Q 5691 2819 5691 2113 
L 5691 0 
L 5113 0 
L 5113 2094 
Q 5113 2597 4934 2840 
Q 4756 3084 4391 3084 
Q 3944 3084 3684 2787 
Q 3425 2491 3425 1978 
L 3425 0 
L 2847 0 
L 2847 2094 
Q 2847 2600 2669 2842 
Q 2491 3084 2119 3084 
Q 1678 3084 1418 2786 
Q 1159 2488 1159 1978 
L 1159 0 
L 581 0 
L 581 3500 
L 1159 3500 
L 1159 2956 
Q 1356 3278 1631 3431 
Q 1906 3584 2284 3584 
Q 2666 3584 2933 3390 
Q 3200 3197 3328 2828 
z
" id="DejaVuSans-6d" transform="scale(0.015625)"/>
      </defs>
      <use xlink:href="#DejaVuSans-54"/>
      <use x="44.083984" xlink:href="#DejaVuSans-6f"/>
      <use x="105.265625" xlink:href="#DejaVuSans-74"/>
      <use x="144.474609" xlink:href="#DejaVuSans-61"/>
      <use x="205.753906" xlink:href="#DejaVuSans-6c"/>
      <use x="233.537109" xlink:href="#DejaVuSans-20"/>
      <use x="265.324219" xlink:href="#DejaVuSans-41"/>
      <use x="333.732422" xlink:href="#DejaVuSans-6e"/>
      <use x="397.111328" xlink:href="#DejaVuSans-69"/>
      <use x="424.894531" xlink:href="#DejaVuSans-6d"/>
      <use x="522.306641" xlink:href="#DejaVuSans-61"/>
      <use x="583.585938" xlink:href="#DejaVuSans-6c"/>
      <use x="611.369141" xlink:href="#DejaVuSans-73"/>
     </g>
    </g>
   </g>
   <g id="patch_31">
    <path d="M 72 378 
L 72 51.84 
" style="fill:none;stroke:#000000;stroke-linecap:square;stroke-linejoin:miter;stroke-width:0.8;"/>
   </g>
   <g id="patch_32">
    <path d="M 518.4 378 
L 518.4 51.84 
" style="fill:none;stroke:#000000;stroke-linecap:square;stroke-linejoin:miter;stroke-width:0.8;"/>
   </g>
   <g id="patch_33">
    <path d="M 72 378 
L 518.4 378 
" style="fill:none;stroke:#000000;stroke-linecap:square;stroke-linejoin:miter;stroke-width:0.8;"/>
   </g>
   <g id="patch_34">
    <path d="M 72 51.84 
L 518.4 51.84 
" style="fill:none;stroke:#000000;stroke-linecap:square;stroke-linejoin:miter;stroke-width:0.8;"/>
   </g>
   <g id="text_16">
    <!-- Total Animals per Conservation Status -->
    <g transform="translate(180.91875 45.84)scale(0.12 -0.12)">
     <use xlink:href="#DejaVuSans-54"/>
     <use x="44.083984" xlink:href="#DejaVuSans-6f"/>
     <use x="105.265625" xlink:href="#DejaVuSans-74"/>
     <use x="144.474609" xlink:href="#DejaVuSans-61"/>
     <use x="205.753906" xlink:href="#DejaVuSans-6c"/>
     <use x="233.537109" xlink:href="#DejaVuSans-20"/>
     <use x="265.324219" xlink:href="#DejaVuSans-41"/>
     <use x="333.732422" xlink:href="#DejaVuSans-6e"/>
     <use x="397.111328" xlink:href="#DejaVuSans-69"/>
     <use x="424.894531" xlink:href="#DejaVuSans-6d"/>
     <use x="522.306641" xlink:href="#DejaVuSans-61"/>
     <use x="583.585938" xlink:href="#DejaVuSans-6c"/>
     <use x="611.369141" xlink:href="#DejaVuSans-73"/>
     <use x="663.46875" xlink:href="#DejaVuSans-20"/>
     <use x="695.255859" xlink:href="#DejaVuSans-70"/>
     <use x="758.732422" xlink:href="#DejaVuSans-65"/>
     <use x="820.255859" xlink:href="#DejaVuSans-72"/>
     <use x="861.369141" xlink:href="#DejaVuSans-20"/>
     <use x="893.15625" xlink:href="#DejaVuSans-43"/>
     <use x="962.980469" xlink:href="#DejaVuSans-6f"/>
     <use x="1024.162109" xlink:href="#DejaVuSans-6e"/>
     <use x="1087.541016" xlink:href="#DejaVuSans-73"/>
     <use x="1139.640625" xlink:href="#DejaVuSans-65"/>
     <use x="1201.164062" xlink:href="#DejaVuSans-72"/>
     <use x="1242.277344" xlink:href="#DejaVuSans-76"/>
     <use x="1301.457031" xlink:href="#DejaVuSans-61"/>
     <use x="1362.736328" xlink:href="#DejaVuSans-74"/>
     <use x="1401.945312" xlink:href="#DejaVuSans-69"/>
     <use x="1429.728516" xlink:href="#DejaVuSans-6f"/>
     <use x="1490.910156" xlink:href="#DejaVuSans-6e"/>
     <use x="1554.289062" xlink:href="#DejaVuSans-20"/>
     <use x="1586.076172" xlink:href="#DejaVuSans-53"/>
     <use x="1649.552734" xlink:href="#DejaVuSans-74"/>
     <use x="1688.761719" xlink:href="#DejaVuSans-61"/>
     <use x="1750.041016" xlink:href="#DejaVuSans-74"/>
     <use x="1789.25" xlink:href="#DejaVuSans-75"/>
     <use x="1852.628906" xlink:href="#DejaVuSans-73"/>
    </g>
   </g>
   <g id="legend_1">
    <g id="patch_35">
     <path d="M 388.98125 177.265 
L 511.4 177.265 
Q 513.4 177.265 513.4 175.265 
L 513.4 58.84 
Q 513.4 56.84 511.4 56.84 
L 388.98125 56.84 
Q 386.98125 56.84 386.98125 58.84 
L 386.98125 175.265 
Q 386.98125 177.265 388.98125 177.265 
z
" style="fill:#ffffff;opacity:0.8;stroke:#cccccc;stroke-linejoin:miter;"/>
    </g>
    <g id="text_17">
     <!-- category -->
     <g transform="translate(428.092187 68.438437)scale(0.1 -0.1)">
      <use xlink:href="#DejaVuSans-63"/>
      <use x="54.980469" xlink:href="#DejaVuSans-61"/>
      <use x="116.259766" xlink:href="#DejaVuSans-74"/>
      <use x="155.46875" xlink:href="#DejaVuSans-65"/>
      <use x="216.992188" xlink:href="#DejaVuSans-67"/>
      <use x="280.46875" xlink:href="#DejaVuSans-6f"/>
      <use x="341.650391" xlink:href="#DejaVuSans-72"/>
      <use x="382.763672" xlink:href="#DejaVuSans-79"/>
     </g>
    </g>
    <g id="patch_36">
     <path d="M 390.98125 83.116562 
L 410.98125 83.116562 
L 410.98125 76.116562 
L 390.98125 76.116562 
z
" style="fill:#1f77b4;"/>
    </g>
    <g id="text_18">
     <!-- Amphibian -->
     <g transform="translate(418.98125 83.116562)scale(0.1 -0.1)">
      <defs>
       <path d="M 3116 1747 
Q 3116 2381 2855 2742 
Q 2594 3103 2138 3103 
Q 1681 3103 1420 2742 
Q 1159 2381 1159 1747 
Q 1159 1113 1420 752 
Q 1681 391 2138 391 
Q 2594 391 2855 752 
Q 3116 1113 3116 1747 
z
M 1159 2969 
Q 1341 3281 1617 3432 
Q 1894 3584 2278 3584 
Q 2916 3584 3314 3078 
Q 3713 2572 3713 1747 
Q 3713 922 3314 415 
Q 2916 -91 2278 -91 
Q 1894 -91 1617 61 
Q 1341 213 1159 525 
L 1159 0 
L 581 0 
L 581 4863 
L 1159 4863 
L 1159 2969 
z
" id="DejaVuSans-62" transform="scale(0.015625)"/>
      </defs>
      <use xlink:href="#DejaVuSans-41"/>
      <use x="68.408203" xlink:href="#DejaVuSans-6d"/>
      <use x="165.820312" xlink:href="#DejaVuSans-70"/>
      <use x="229.296875" xlink:href="#DejaVuSans-68"/>
      <use x="292.675781" xlink:href="#DejaVuSans-69"/>
      <use x="320.458984" xlink:href="#DejaVuSans-62"/>
      <use x="383.935547" xlink:href="#DejaVuSans-69"/>
      <use x="411.71875" xlink:href="#DejaVuSans-61"/>
      <use x="472.998047" xlink:href="#DejaVuSans-6e"/>
     </g>
    </g>
    <g id="patch_37">
     <path d="M 390.98125 97.794688 
L 410.98125 97.794688 
L 410.98125 90.794688 
L 390.98125 90.794688 
z
" style="fill:#ff7f0e;"/>
    </g>
    <g id="text_19">
     <!-- Bird -->
     <g transform="translate(418.98125 97.794688)scale(0.1 -0.1)">
      <defs>
       <path d="M 1259 2228 
L 1259 519 
L 2272 519 
Q 2781 519 3026 730 
Q 3272 941 3272 1375 
Q 3272 1813 3026 2020 
Q 2781 2228 2272 2228 
L 1259 2228 
z
M 1259 4147 
L 1259 2741 
L 2194 2741 
Q 2656 2741 2882 2914 
Q 3109 3088 3109 3444 
Q 3109 3797 2882 3972 
Q 2656 4147 2194 4147 
L 1259 4147 
z
M 628 4666 
L 2241 4666 
Q 2963 4666 3353 4366 
Q 3744 4066 3744 3513 
Q 3744 3084 3544 2831 
Q 3344 2578 2956 2516 
Q 3422 2416 3680 2098 
Q 3938 1781 3938 1306 
Q 3938 681 3513 340 
Q 3088 0 2303 0 
L 628 0 
L 628 4666 
z
" id="DejaVuSans-42" transform="scale(0.015625)"/>
      </defs>
      <use xlink:href="#DejaVuSans-42"/>
      <use x="68.603516" xlink:href="#DejaVuSans-69"/>
      <use x="96.386719" xlink:href="#DejaVuSans-72"/>
      <use x="135.75" xlink:href="#DejaVuSans-64"/>
     </g>
    </g>
    <g id="patch_38">
     <path d="M 390.98125 112.472812 
L 410.98125 112.472812 
L 410.98125 105.472812 
L 390.98125 105.472812 
z
" style="fill:#2ca02c;"/>
    </g>
    <g id="text_20">
     <!-- Fish -->
     <g transform="translate(418.98125 112.472812)scale(0.1 -0.1)">
      <defs>
       <path d="M 628 4666 
L 3309 4666 
L 3309 4134 
L 1259 4134 
L 1259 2759 
L 3109 2759 
L 3109 2228 
L 1259 2228 
L 1259 0 
L 628 0 
L 628 4666 
z
" id="DejaVuSans-46" transform="scale(0.015625)"/>
      </defs>
      <use xlink:href="#DejaVuSans-46"/>
      <use x="50.269531" xlink:href="#DejaVuSans-69"/>
      <use x="78.052734" xlink:href="#DejaVuSans-73"/>
      <use x="130.152344" xlink:href="#DejaVuSans-68"/>
     </g>
    </g>
    <g id="patch_39">
     <path d="M 390.98125 127.150937 
L 410.98125 127.150937 
L 410.98125 120.150937 
L 390.98125 120.150937 
z
" style="fill:#d62728;"/>
    </g>
    <g id="text_21">
     <!-- Mammal -->
     <g transform="translate(418.98125 127.150937)scale(0.1 -0.1)">
      <defs>
       <path d="M 628 4666 
L 1569 4666 
L 2759 1491 
L 3956 4666 
L 4897 4666 
L 4897 0 
L 4281 0 
L 4281 4097 
L 3078 897 
L 2444 897 
L 1241 4097 
L 1241 0 
L 628 0 
L 628 4666 
z
" id="DejaVuSans-4d" transform="scale(0.015625)"/>
      </defs>
      <use xlink:href="#DejaVuSans-4d"/>
      <use x="86.279297" xlink:href="#DejaVuSans-61"/>
      <use x="147.558594" xlink:href="#DejaVuSans-6d"/>
      <use x="244.970703" xlink:href="#DejaVuSans-6d"/>
      <use x="342.382812" xlink:href="#DejaVuSans-61"/>
      <use x="403.662109" xlink:href="#DejaVuSans-6c"/>
     </g>
    </g>
    <g id="patch_40">
     <path d="M 390.98125 141.829062 
L 410.98125 141.829062 
L 410.98125 134.829062 
L 390.98125 134.829062 
z
" style="fill:#9467bd;"/>
    </g>
    <g id="text_22">
     <!-- Nonvascular Plant -->
     <g transform="translate(418.98125 141.829062)scale(0.1 -0.1)">
      <defs>
       <path d="M 628 4666 
L 1478 4666 
L 3547 763 
L 3547 4666 
L 4159 4666 
L 4159 0 
L 3309 0 
L 1241 3903 
L 1241 0 
L 628 0 
L 628 4666 
z
" id="DejaVuSans-4e" transform="scale(0.015625)"/>
       <path d="M 1259 4147 
L 1259 2394 
L 2053 2394 
Q 2494 2394 2734 2622 
Q 2975 2850 2975 3272 
Q 2975 3691 2734 3919 
Q 2494 4147 2053 4147 
L 1259 4147 
z
M 628 4666 
L 2053 4666 
Q 2838 4666 3239 4311 
Q 3641 3956 3641 3272 
Q 3641 2581 3239 2228 
Q 2838 1875 2053 1875 
L 1259 1875 
L 1259 0 
L 628 0 
L 628 4666 
z
" id="DejaVuSans-50" transform="scale(0.015625)"/>
      </defs>
      <use xlink:href="#DejaVuSans-4e"/>
      <use x="74.804688" xlink:href="#DejaVuSans-6f"/>
      <use x="135.986328" xlink:href="#DejaVuSans-6e"/>
      <use x="199.365234" xlink:href="#DejaVuSans-76"/>
      <use x="258.544922" xlink:href="#DejaVuSans-61"/>
      <use x="319.824219" xlink:href="#DejaVuSans-73"/>
      <use x="371.923828" xlink:href="#DejaVuSans-63"/>
      <use x="426.904297" xlink:href="#DejaVuSans-75"/>
      <use x="490.283203" xlink:href="#DejaVuSans-6c"/>
      <use x="518.066406" xlink:href="#DejaVuSans-61"/>
      <use x="579.345703" xlink:href="#DejaVuSans-72"/>
      <use x="620.458984" xlink:href="#DejaVuSans-20"/>
      <use x="652.246094" xlink:href="#DejaVuSans-50"/>
      <use x="712.548828" xlink:href="#DejaVuSans-6c"/>
      <use x="740.332031" xlink:href="#DejaVuSans-61"/>
      <use x="801.611328" xlink:href="#DejaVuSans-6e"/>
      <use x="864.990234" xlink:href="#DejaVuSans-74"/>
     </g>
    </g>
    <g id="patch_41">
     <path d="M 390.98125 156.507187 
L 410.98125 156.507187 
L 410.98125 149.507187 
L 390.98125 149.507187 
z
" style="fill:#8c564b;"/>
    </g>
    <g id="text_23">
     <!-- Reptile -->
     <g transform="translate(418.98125 156.507187)scale(0.1 -0.1)">
      <use xlink:href="#DejaVuSans-52"/>
      <use x="64.982422" xlink:href="#DejaVuSans-65"/>
      <use x="126.505859" xlink:href="#DejaVuSans-70"/>
      <use x="189.982422" xlink:href="#DejaVuSans-74"/>
      <use x="229.191406" xlink:href="#DejaVuSans-69"/>
      <use x="256.974609" xlink:href="#DejaVuSans-6c"/>
      <use x="284.757812" xlink:href="#DejaVuSans-65"/>
     </g>
    </g>
    <g id="patch_42">
     <path d="M 390.98125 171.185313 
L 410.98125 171.185313 
L 410.98125 164.185313 
L 390.98125 164.185313 
z
" style="fill:#e377c2;"/>
    </g>
    <g id="text_24">
     <!-- Vascular Plant -->
     <g transform="translate(418.98125 171.185313)scale(0.1 -0.1)">
      <defs>
       <path d="M 1831 0 
L 50 4666 
L 709 4666 
L 2188 738 
L 3669 4666 
L 4325 4666 
L 2547 0 
L 1831 0 
z
" id="DejaVuSans-56" transform="scale(0.015625)"/>
      </defs>
      <use xlink:href="#DejaVuSans-56"/>
      <use x="60.658203" xlink:href="#DejaVuSans-61"/>
      <use x="121.9375" xlink:href="#DejaVuSans-73"/>
      <use x="174.037109" xlink:href="#DejaVuSans-63"/>
      <use x="229.017578" xlink:href="#DejaVuSans-75"/>
      <use x="292.396484" xlink:href="#DejaVuSans-6c"/>
      <use x="320.179688" xlink:href="#DejaVuSans-61"/>
      <use x="381.458984" xlink:href="#DejaVuSans-72"/>
      <use x="422.572266" xlink:href="#DejaVuSans-20"/>
      <use x="454.359375" xlink:href="#DejaVuSans-50"/>
      <use x="514.662109" xlink:href="#DejaVuSans-6c"/>
      <use x="542.445312" xlink:href="#DejaVuSans-61"/>
      <use x="603.724609" xlink:href="#DejaVuSans-6e"/>
      <use x="667.103516" xlink:href="#DejaVuSans-74"/>
     </g>
    </g>
   </g>
  </g>
 </g>
 <defs>
  <clipPath id="pcd51fbe156">
   <rect height="326.16" width="446.4" x="72" y="51.84"/>
  </clipPath>
 </defs>
</svg>
